<svg width="16" height="16" viewBox="0 0 16 16" fill="none" xmlns="http://www.w3.org/2000/svg">
<path d="M8.00331 3.95732C5.73189 3.95732 3.89975 5.76084 3.89975 7.99677C3.89975 10.2327 5.73189 12.0362 8.00331 12.0362C10.2747 12.0362 12.1069 10.2327 12.1069 7.99677C12.1069 5.76084 10.2747 3.95732 8.00331 3.95732ZM8.00331 10.6229C6.53546 10.6229 5.33546 9.44521 5.33546 7.99677C5.33546 6.54834 6.53189 5.3706 8.00331 5.3706C9.47474 5.3706 10.6712 6.54834 10.6712 7.99677C10.6712 9.44521 9.47117 10.6229 8.00331 10.6229ZM13.2319 3.79209C13.2319 4.31592 12.8033 4.73428 12.2747 4.73428C11.7426 4.73428 11.3176 4.3124 11.3176 3.79209C11.3176 3.27178 11.7462 2.8499 12.2747 2.8499C12.8033 2.8499 13.2319 3.27178 13.2319 3.79209ZM15.9497 4.74834C15.889 3.48623 15.5962 2.36826 14.6569 1.44717C13.7212 0.526074 12.5855 0.237793 11.3033 0.174512C9.98188 0.100684 6.02117 0.100684 4.69975 0.174512C3.42118 0.234277 2.28546 0.522558 1.34618 1.44365C0.406892 2.36474 0.117606 3.48271 0.0533203 4.74482C-0.0216797 6.0456 -0.0216797 9.94443 0.0533203 11.2452C0.114035 12.5073 0.406892 13.6253 1.34618 14.5464C2.28546 15.4675 3.4176 15.7558 4.69975 15.819C6.02117 15.8929 9.98188 15.8929 11.3033 15.819C12.5855 15.7593 13.7212 15.471 14.6569 14.5464C15.5926 13.6253 15.8855 12.5073 15.9497 11.2452C16.0247 9.94443 16.0247 6.04912 15.9497 4.74834ZM14.2426 12.6409C13.964 13.33 13.4247 13.8608 12.7212 14.1386C11.6676 14.5499 9.1676 14.455 8.00331 14.455C6.83903 14.455 4.33546 14.5464 3.28546 14.1386C2.58546 13.8643 2.04618 13.3335 1.76403 12.6409C1.34618 11.6038 1.44261 9.14287 1.44261 7.99677C1.44261 6.85068 1.34975 4.38623 1.76403 3.35263C2.0426 2.66357 2.58189 2.13271 3.28546 1.85498C4.33903 1.44365 6.83903 1.53857 8.00331 1.53857C9.1676 1.53857 11.6712 1.44717 12.7212 1.85498C13.4212 2.1292 13.9605 2.66006 14.2426 3.35263C14.6605 4.38974 14.564 6.85068 14.564 7.99677C14.564 9.14287 14.6605 11.6073 14.2426 12.6409Z" fill="#192031"/>
</svg>
