<svg width="20" height="21" viewBox="0 0 20 21" fill="none" xmlns="http://www.w3.org/2000/svg">
<path d="M19.9994 15.4738V18.4846C20.0005 18.7642 19.9431 19.0408 19.831 19.2969C19.7188 19.553 19.5542 19.7829 19.3478 19.9719C19.1415 20.1608 18.8978 20.3047 18.6325 20.3942C18.3672 20.4838 18.0861 20.517 17.8072 20.4919C14.7128 20.1563 11.7404 19.101 9.1289 17.4108C6.69921 15.8699 4.63926 13.8141 3.09534 11.3892C1.39586 8.77099 0.338241 5.79008 0.00816212 2.68795C-0.0169672 2.41042 0.0160811 2.13071 0.105202 1.86663C0.194324 1.60254 0.337566 1.35987 0.525808 1.15407C0.71405 0.948259 0.943169 0.783825 1.19858 0.671234C1.45398 0.558642 1.73008 0.50036 2.0093 0.500097H5.02608C5.5141 0.495304 5.98722 0.667778 6.35725 0.985372C6.72727 1.30297 6.96896 1.74401 7.03727 2.22629C7.1646 3.18982 7.40074 4.13587 7.74118 5.04641C7.87648 5.40563 7.90576 5.79602 7.82556 6.17133C7.74536 6.54665 7.55903 6.89115 7.28867 7.16402L6.01156 8.43859C7.44308 10.9512 9.52758 13.0315 12.0451 14.4602L13.3222 13.1856C13.5956 12.9158 13.9408 12.7298 14.3169 12.6498C14.6929 12.5698 15.0841 12.599 15.444 12.734C16.3564 13.0738 17.3043 13.3095 18.2698 13.4365C18.7582 13.5053 19.2044 13.7509 19.5233 14.1265C19.8422 14.5021 20.0116 14.9817 19.9994 15.4738Z" fill="url(#paint0_linear_30_708)"/>
<defs>
<linearGradient id="paint0_linear_30_708" x1="10" y1="0.5" x2="10" y2="20.5" gradientUnits="userSpaceOnUse">
<stop stop-color="#FF9500"/>
<stop offset="1" stop-color="#FF4A4A"/>
</linearGradient>
</defs>
</svg>
